<?xml version="1.0" encoding="utf-8"?>
<!-- Generator: Adobe Illustrator 18.0.0, SVG Export Plug-In . SVG Version: 6.00 Build 0)  -->
<!DOCTYPE svg PUBLIC "-//W3C//DTD SVG 1.1//EN" "http://www.w3.org/Graphics/SVG/1.1/DTD/svg11.dtd">
<svg version="1.1" id="Layer_1" xmlns="http://www.w3.org/2000/svg" xmlns:xlink="http://www.w3.org/1999/xlink" x="0px" y="0px"
	 viewBox="0 0 136.9 136.9" enable-background="new 0 0 136.9 136.9" xml:space="preserve">
<g>
	<g>
		<g>
			<g>
				<g>
					<circle fill="#00EA5F" cx="68.5" cy="68.5" r="63.3"/>
				</g>
			</g>
		</g>
	</g>
	<path id="user-2-icon" fill="#008235" d="M108.2,86.3c-6.6-1.5-14.6-5.4-12.2-10.4c1.5,2.5,6.2,3.9,9.9,1.8
		c-10.5-2.7,5.2-20.9-8.6-31.2c-5-3.8-12.3-3.8-17.3,0c-13.8,10.2,1.9,28.5-8.6,31.2c3.7,2.2,8.4,0.6,9.9-1.8
		c2.4,5.1-5.7,8.9-12.2,10.4c-7.6,1.7-7,6.7-7,10.4h53.3C115.3,93,115.9,88,108.2,86.3z"/>
	<path fill="#008235" d="M69.7,82.8c-8.1-1.9-15.7-3.5-12-10.4c11.1-21,2.9-32.2-8.8-32.2c-12,0-20,11.6-8.8,32.2
		c3.8,6.9-4.1,8.6-12,10.4c-8.1,1.9-7.5,6.1-7.5,13.9h56.6C77.2,88.9,77.8,84.7,69.7,82.8z"/>
</g>
</svg>
