<?xml version="1.0" encoding="utf-8"?>
<!-- Generator: Adobe Illustrator 18.0.0, SVG Export Plug-In . SVG Version: 6.00 Build 0)  -->
<!DOCTYPE svg PUBLIC "-//W3C//DTD SVG 1.1//EN" "http://www.w3.org/Graphics/SVG/1.1/DTD/svg11.dtd">
<svg version="1.1" id="Layer_1" xmlns="http://www.w3.org/2000/svg" xmlns:xlink="http://www.w3.org/1999/xlink" x="0px" y="0px"
	 viewBox="0 0 136.9 136.9" enable-background="new 0 0 136.9 136.9" xml:space="preserve">
<g>
	<g>
		<g>
			<g>
				<g>
					<circle fill="#D35387" cx="68.5" cy="68.5" r="63.3"/>
				</g>
			</g>
		</g>
	</g>
	<path id="user-2-icon" fill="#682A46" d="M95,90.3c-8.9-2-19.8-7.3-16.6-14.1c2.1,3.4,8.4,5.3,13.4,2.4c-14.3-3.6,7-28.3-11.6-42.2
		c-6.8-5.1-16.7-5.1-23.4,0C38.1,50.3,59.4,75,45.1,78.6c5,2.9,11.3,0.9,13.4-2.4c3.2,6.8-7.7,12.1-16.6,14.1
		c-10.3,2.4-9.5,9.1-9.5,14h72.1C104.5,99.4,105.3,92.7,95,90.3z"/>
</g>
</svg>
